<svg width="44" height="34" viewBox="0 0 44 34" fill="none" xmlns="http://www.w3.org/2000/svg">
<path d="M15.1315 8.56673H17.2563C17.8077 8.56673 18.2562 9.01523 18.2562 9.56661V11.0315C18.2562 11.3875 18.5448 11.676 18.9007 11.676C19.2567 11.676 19.5453 11.3875 19.5453 11.0315V9.56661C19.5453 8.30445 18.5184 7.27766 17.2563 7.27766H15.1315C14.5894 7.27766 14.1484 6.83663 14.1484 6.29454C14.1484 5.75245 14.5894 5.3115 15.1315 5.3115H19.843C21.0959 5.3115 22.1151 4.2922 22.1151 3.03931C22.1151 1.78643 21.0958 0.767212 19.843 0.767212H16.0738C15.7179 0.767212 15.4293 1.05579 15.4293 1.41174C15.4293 1.7677 15.7179 2.05627 16.0738 2.05627H19.843C20.3851 2.05627 20.8261 2.49731 20.8261 3.03931C20.8261 3.58141 20.385 4.02244 19.843 4.02244H15.1315C13.8786 4.02244 12.8593 5.04174 12.8593 6.29454C12.8593 7.54742 13.8786 8.56673 15.1315 8.56673Z" fill="#363853"/>
<path d="M7.38856 12.8924H9.49713C10.0415 12.8924 10.4844 13.3354 10.4844 13.8798V15.3335C10.4844 15.6895 10.773 15.978 11.1289 15.978C11.4849 15.978 11.7734 15.6895 11.7734 15.3335V13.8798C11.7734 12.6246 10.7522 11.6034 9.49713 11.6034H7.38856C6.85334 11.6034 6.41798 11.1679 6.41798 10.6328C6.41798 10.0977 6.85343 9.66223 7.38856 9.66223H9.85385C10.2098 9.66223 10.4984 9.37365 10.4984 9.0177C10.4984 8.66175 10.2098 8.37317 9.85385 8.37317H7.38856C6.14255 8.37317 5.12892 9.3868 5.12892 10.6328C5.12892 11.8788 6.14255 12.8924 7.38856 12.8924Z" fill="#363853"/>
<path d="M25.6523 21.8125C26.0083 21.8125 26.2969 21.5239 26.2969 21.168C26.2969 20.812 26.0083 20.5234 25.6523 20.5234C25.2964 20.5234 25.0078 20.812 25.0078 21.168C25.0078 21.5239 25.2964 21.8125 25.6523 21.8125Z" fill="#363853"/>
<path d="M28.832 23.2734C29.188 23.2734 29.4766 22.9849 29.4766 22.6289C29.4766 22.2729 29.188 21.9844 28.832 21.9844C28.4761 21.9844 28.1875 22.2729 28.1875 22.6289C28.1875 22.9849 28.4761 23.2734 28.832 23.2734Z" fill="#363853"/>
<path d="M30.7227 25.5078C31.0786 25.5078 31.3672 25.2192 31.3672 24.8633C31.3672 24.5073 31.0786 24.2188 30.7227 24.2188C30.3667 24.2188 30.0781 24.5073 30.0781 24.8633C30.0781 25.2192 30.3667 25.5078 30.7227 25.5078Z" fill="#363853"/>
<path d="M28.0586 20.2656C28.4146 20.2656 28.7031 19.9771 28.7031 19.6211C28.7031 19.2651 28.4146 18.9766 28.0586 18.9766C27.7026 18.9766 27.4141 19.2651 27.4141 19.6211C27.4141 19.9771 27.7026 20.2656 28.0586 20.2656Z" fill="#363853"/>
<path d="M25.9102 25.9375C26.2661 25.9375 26.5547 25.6489 26.5547 25.293C26.5547 24.937 26.2661 24.6484 25.9102 24.6484C25.5542 24.6484 25.2656 24.937 25.2656 25.293C25.2656 25.6489 25.5542 25.9375 25.9102 25.9375Z" fill="#363853"/>
<path d="M42.9114 17.8109H41.083L41.9867 15.9433C43.1331 15.715 44 14.7014 44 13.4889C44 12.2453 43.0882 11.2111 41.8981 11.0186C40.5827 8.64948 38.0131 6.87015 34.8968 6.15987V6.11072C34.8968 5.75476 34.6083 5.46619 34.2523 5.46619C33.9573 5.46619 33.7091 5.66462 33.6326 5.93515C33.2401 5.88453 32.8407 5.8517 32.4363 5.83494C32.333 5.61718 32.1116 5.46619 31.8545 5.46619C31.5973 5.46619 31.376 5.61718 31.2726 5.83494C30.8681 5.8517 30.4687 5.88453 30.0762 5.93523C29.9998 5.6647 29.7516 5.46619 29.4565 5.46619C29.1005 5.46619 28.812 5.75476 28.812 6.11072V6.15987C25.6958 6.87015 23.1261 8.64957 21.8108 11.0186C20.6207 11.2111 19.709 12.2453 19.709 13.4889C19.709 13.5615 19.7123 13.6333 19.7184 13.7043C16.7427 13.981 14.0692 15.2242 12.0633 17.0896H8.01359C7.73755 17.0896 7.4904 17.2134 7.32316 17.408H5.43039C5.12033 16.6246 4.35067 16.071 3.47342 16.071C2.31344 16.071 1.36976 17.0146 1.36976 18.1746C1.36976 18.2737 1.37758 18.3717 1.39124 18.4683C0.580851 18.7608 0 19.5375 0 20.4474C0 20.8514 0.114727 21.2398 0.325445 21.5722C0.114727 21.9047 0 22.293 0 22.697C0 23.857 0.94368 24.8007 2.10366 24.8007C2.98091 24.8007 3.75057 24.2471 4.06063 23.4636H5.76537C5.84358 23.7509 6.0592 23.988 6.35087 24.087L8.37177 24.7733C8.35974 24.9815 8.35321 25.1911 8.35321 25.4021C8.35321 25.6009 8.35888 25.7988 8.36945 25.9961C8.05346 26.0723 7.75852 26.2031 7.49607 26.3792C7.06398 26.0894 6.54491 25.9197 5.98666 25.9197C4.48791 25.9197 3.26863 27.139 3.26863 28.6378C3.26863 28.6607 3.27035 28.6833 3.27095 28.7061H2.51685C2.09129 28.7061 1.71411 28.9452 1.53244 29.3299C1.35077 29.7147 1.40585 30.1578 1.6763 30.4864L3.6098 32.8359C3.81743 33.088 4.12371 33.2327 4.45036 33.2327H31.7103C32.0663 33.2327 32.3548 32.9441 32.3548 32.5882C32.3548 32.2322 32.0663 31.9436 31.7103 31.9436H4.54498L2.94147 29.9952H42.4853L40.8818 31.9436H34.7181C34.362 31.9436 34.0735 32.2322 34.0735 32.5882C34.0735 32.9441 34.362 33.2327 34.7181 33.2327H40.9764C41.3031 33.2327 41.6095 33.088 41.8169 32.8358L43.7504 30.4865C44.0207 30.1578 44.0759 29.7147 43.8942 29.3299C43.7126 28.9451 43.3354 28.7061 42.9099 28.7061H42.2716C42.905 27.61 43.143 26.311 42.9119 25.0346C42.8639 24.7702 42.657 24.5631 42.3925 24.5153C40.6466 24.1992 38.857 24.758 37.6048 26.0101C37.5283 26.0865 37.4554 26.1658 37.3842 26.2462C37.0148 26.0462 36.594 25.9301 36.1474 25.9214V24.695H36.835C37.925 24.695 38.8117 23.8083 38.8117 22.7183V21.8531H42.9114C43.5116 21.8531 44 21.3647 44 20.7645V18.8995C44 18.2992 43.5116 17.8109 42.9114 17.8109ZM6.29054 28.7062H4.56002C4.5589 28.6835 4.5577 28.6608 4.5577 28.6379C4.5577 27.8499 5.1987 27.2089 5.98666 27.2089C6.21079 27.2089 6.42254 27.2614 6.61126 27.354C6.40535 27.7365 6.28813 28.1737 6.28813 28.6379C6.28822 28.6608 6.28994 28.6833 6.29054 28.7062ZM38.5163 26.9216C39.3595 26.0786 40.5223 25.6483 41.7005 25.7267C41.7727 26.812 41.412 27.8847 40.6953 28.7062H39.6325L40.5131 27.8256C40.7648 27.5739 40.7648 27.1658 40.5131 26.9141C40.2613 26.6624 39.8533 26.6624 39.6015 26.9141L38.6882 27.8275C38.6075 27.5698 38.4893 27.3286 38.3402 27.1101C38.3969 27.0456 38.4553 26.9826 38.5163 26.9216ZM25.5032 8.94219C26.4787 8.28863 27.6054 7.79844 28.812 7.4901V8.15337C28.812 8.50932 29.1005 8.7979 29.4565 8.7979C29.8126 8.7979 30.1011 8.50932 30.1011 8.15337V7.23452C30.4665 7.18253 30.8368 7.14816 31.2099 7.12899V8.15337C31.2099 8.50932 31.4984 8.7979 31.8545 8.7979C32.2105 8.7979 32.499 8.50932 32.499 8.15337V7.12899C32.8721 7.14824 33.2424 7.18262 33.6077 7.23452V8.15337C33.6077 8.50932 33.8962 8.7979 34.2523 8.7979C34.6083 8.7979 34.8968 8.50932 34.8968 8.15337V7.4901C36.1035 7.79844 37.2302 8.28863 38.2057 8.94227C39.1561 9.57898 39.9304 10.3479 40.4945 11.1982C40.2768 11.294 40.0729 11.42 39.89 11.5732C39.4452 11.2005 38.8773 10.9861 38.2829 10.9861C37.6885 10.9861 37.1205 11.2005 36.6758 11.5732C36.231 11.2005 35.663 10.9861 35.0687 10.9861C34.4743 10.9861 33.9063 11.2005 33.4616 11.5732C33.0168 11.2005 32.4488 10.9861 31.8545 10.9861C31.26 10.9861 30.6921 11.2005 30.2473 11.5732C29.8025 11.2005 29.2346 10.9861 28.6402 10.9861C28.0458 10.9861 27.4778 11.2005 27.0331 11.5732C26.5884 11.2005 26.0204 10.9861 25.426 10.9861C24.8316 10.9861 24.2637 11.2005 23.8189 11.5732C23.6361 11.42 23.4321 11.294 23.2144 11.1982C23.7785 10.3478 24.5528 9.5789 25.5032 8.94219ZM22.2117 12.2751C22.642 12.2751 23.0441 12.5077 23.2612 12.8822C23.3765 13.0809 23.5889 13.2034 23.8188 13.2034C24.0486 13.2034 24.261 13.081 24.3763 12.8823C24.5935 12.5077 24.9957 12.2751 25.4259 12.2751C25.8562 12.2751 26.2584 12.5077 26.4755 12.8822C26.5908 13.0809 26.8031 13.2034 27.033 13.2034C27.2629 13.2034 27.4752 13.081 27.5906 12.8822C27.8077 12.5077 28.2098 12.2751 28.6401 12.2751C29.0703 12.2751 29.4725 12.5077 29.6898 12.8823C29.8051 13.081 30.0175 13.2034 30.2472 13.2034C30.4771 13.2034 30.6895 13.081 30.8048 12.8822C31.0219 12.5077 31.4241 12.2751 31.8544 12.2751C32.2846 12.2751 32.6868 12.5077 32.904 12.8823C33.0192 13.081 33.2317 13.2034 33.4615 13.2034C33.6914 13.2034 33.9037 13.081 34.019 12.8822C34.2361 12.5077 34.6383 12.2751 35.0686 12.2751C35.4988 12.2751 35.901 12.5077 36.1182 12.8823C36.2336 13.081 36.4459 13.2034 36.6757 13.2034C36.9056 13.2034 37.118 13.081 37.2333 12.8822C37.4504 12.5077 37.8525 12.2751 38.2828 12.2751C38.713 12.2751 39.1152 12.5077 39.3325 12.8823C39.4477 13.081 39.6602 13.2034 39.89 13.2034C40.1198 13.2034 40.3322 13.081 40.4475 12.8822C40.6646 12.5077 41.0668 12.2751 41.4971 12.2751C42.1663 12.2751 42.7108 12.8195 42.7108 13.4888C42.7108 14.1581 42.1663 14.7025 41.4971 14.7025C41.0668 14.7025 40.6646 14.4699 40.4475 14.0954C40.3322 13.8967 40.1198 13.7742 39.89 13.7742C39.6602 13.7742 39.4477 13.8966 39.3325 14.0953C39.1152 14.4699 38.713 14.7025 38.2828 14.7025C37.8525 14.7025 37.4504 14.4699 37.2333 14.0954C37.118 13.8967 36.9056 13.7742 36.6757 13.7742C36.4459 13.7742 36.2335 13.8966 36.1182 14.0953C35.901 14.4699 35.4988 14.7025 35.0686 14.7025C34.6383 14.7025 34.2361 14.4699 34.019 14.0954C33.9037 13.8967 33.6914 13.7742 33.4615 13.7742C33.2317 13.7742 33.0192 13.8966 32.904 14.0953C32.6868 14.4699 32.2846 14.7025 31.8544 14.7025C31.4241 14.7025 31.0219 14.4699 30.8048 14.0954C30.6895 13.8967 30.4771 13.7742 30.2472 13.7742C30.0175 13.7742 29.805 13.8966 29.6898 14.0953C29.4725 14.4699 29.0703 14.7025 28.6401 14.7025C28.2098 14.7025 27.8077 14.4699 27.5906 14.0954C27.4752 13.8967 27.2629 13.7742 27.033 13.7742C26.8031 13.7742 26.5908 13.8966 26.4755 14.0954C26.3486 14.3142 26.1583 14.4841 25.9363 14.5879C24.4222 13.9847 22.7569 13.6492 21.0094 13.6458C21.0026 13.5943 20.998 13.5422 20.998 13.4888C20.998 12.8195 21.5424 12.2751 22.2117 12.2751ZM8.39163 18.3786H10.8635C10.6095 18.6949 10.3712 19.0227 10.1518 19.3624H8.39163V18.3786ZM5.7328 22.1746H3.5567C3.22145 22.1746 2.94216 22.4316 2.9144 22.7657C2.87968 23.184 2.52355 23.5116 2.10375 23.5116C1.65455 23.5116 1.28915 23.1462 1.28915 22.697C1.28915 22.4535 1.397 22.2244 1.58512 22.0688C1.7331 21.9463 1.81878 21.7643 1.81878 21.5722C1.81878 21.38 1.7331 21.198 1.58512 21.0755C1.397 20.9199 1.28915 20.691 1.28915 20.4473C1.28915 19.9981 1.65455 19.6327 2.10375 19.6327C2.52355 19.6327 2.87968 19.9603 2.9144 20.3786C2.94216 20.7127 3.22145 20.9697 3.5567 20.9697H5.73289V22.1746H5.7328ZM5.95332 19.6808H4.06063C3.82362 19.082 3.31779 18.6184 2.70093 18.4327C2.67343 18.3505 2.65873 18.2635 2.65873 18.1745C2.65873 17.7253 3.02414 17.3599 3.47334 17.3599C3.89314 17.3599 4.24927 17.6876 4.28407 18.1058C4.31183 18.4399 4.59113 18.697 4.92637 18.697H7.10256V19.3624H6.64383C6.3678 19.3624 6.12055 19.4863 5.95332 19.6808ZM10.433 28.7062H7.5796C7.57848 28.6835 7.57728 28.6608 7.57728 28.6379C7.57728 27.8499 8.21829 27.2089 9.00625 27.2089C9.79421 27.2089 10.4352 27.8499 10.4352 28.6379C10.4353 28.6608 10.434 28.6835 10.433 28.7062ZM30.3116 28.7062H28.0679C28.0668 28.6835 28.0656 28.6608 28.0656 28.6379C28.0656 27.8499 28.7066 27.2089 29.4946 27.2089C29.8885 27.2089 30.2459 27.3692 30.5046 27.6279C30.3791 27.9404 30.3093 28.281 30.3093 28.6379C30.3092 28.6608 30.311 28.6833 30.3116 28.7062ZM29.4946 25.9197C27.9959 25.9197 26.7765 27.139 26.7765 28.6378C26.7765 28.6607 26.7782 28.6833 26.7788 28.7061H11.722C11.7226 28.6832 11.7244 28.6607 11.7244 28.6378C11.7244 27.3649 10.8446 26.294 9.66135 26C9.64915 25.8017 9.64227 25.6024 9.64227 25.4021C9.64227 25.3364 9.64322 25.2709 9.64451 25.2054L16.2366 27.4439C16.6807 27.5948 17.1349 27.6691 17.5847 27.6691C18.4345 27.6691 19.2687 27.4037 19.9891 26.8877C21.0906 26.0983 21.7223 24.8685 21.7223 23.5133C21.7223 23.0288 21.6392 22.5535 21.4753 22.1005C21.3541 21.7658 20.9846 21.5927 20.6498 21.7139C20.3151 21.835 20.142 22.2046 20.2632 22.5393C20.3761 22.8512 20.4334 23.1789 20.4334 23.5132C20.4334 24.4475 19.9978 25.2955 19.2383 25.8396C18.479 26.3838 17.5359 26.5235 16.6512 26.2232L7.02195 22.9534V20.6514H17.5715C17.8948 20.6514 18.2133 20.7056 18.5182 20.8125C18.8543 20.9304 19.222 20.7534 19.3397 20.4173C19.4575 20.0813 19.2805 19.7137 18.9446 19.5959C18.5023 19.4409 18.0403 19.3623 17.5715 19.3623H11.7273C13.7835 16.6855 17.1654 14.9344 20.9831 14.9344C27.2364 14.9344 32.3238 19.6302 32.3238 25.4021C32.3238 25.6083 32.3166 25.8135 32.3036 26.0178C31.9142 26.1257 31.5596 26.3183 31.2609 26.5745C30.7855 26.1668 30.1685 25.9197 29.4946 25.9197ZM34.454 28.7062H31.6006C31.5995 28.6835 31.5983 28.6608 31.5983 28.6379C31.5983 27.8499 32.2393 27.2089 33.0272 27.2089C33.8152 27.2089 34.4563 27.8499 34.4563 28.6379C34.4563 28.6608 34.4551 28.6835 34.454 28.7062ZM34.8583 26.2197C34.7555 26.2725 34.6558 26.3304 34.5611 26.3954C34.2745 26.1988 33.9482 26.0568 33.5974 25.9815C33.6073 25.7892 33.6128 25.5961 33.6128 25.4022C33.6128 25.1646 33.6029 24.9292 33.5878 24.695H34.8583V26.2197ZM37.5226 28.6378C37.5226 28.6607 37.5214 28.6834 37.5203 28.7061H35.743C35.7436 28.6832 35.7454 28.6607 35.7454 28.6378C35.7454 28.181 35.6316 27.7505 35.4317 27.3723C35.6296 27.2679 35.8547 27.2088 36.0937 27.2088C36.8816 27.2088 37.5226 27.8498 37.5226 28.6378ZM37.5226 22.7184C37.5226 23.0976 37.2142 23.406 36.835 23.406H33.4281C33.33 22.8757 33.1959 22.3568 33.0241 21.8531H37.5226V22.7184ZM42.7109 20.564H32.4932C32.2456 20.0557 31.9601 19.5668 31.6404 19.0999H34.375C34.731 19.0999 35.0195 18.8113 35.0195 18.4554C35.0195 18.0994 34.731 17.8109 34.375 17.8109H30.6187C30.0022 17.1339 29.3059 16.5221 28.5421 15.9893C28.5747 15.9906 28.6074 15.9916 28.6401 15.9916C29.2345 15.9916 29.8024 15.7771 30.2472 15.4044C30.692 15.7771 31.26 15.9916 31.8544 15.9916C32.4487 15.9916 33.0167 15.7771 33.4615 15.4044C33.9062 15.7771 34.4743 15.9916 35.0686 15.9916C35.6629 15.9916 36.2309 15.7771 36.6757 15.4044C37.1204 15.7771 37.6885 15.9916 38.2828 15.9916C38.8772 15.9916 39.4451 15.7771 39.89 15.4044C40.105 15.5846 40.3489 15.7274 40.6106 15.8272L39.6508 17.8109H37.3828C37.0268 17.8109 36.7383 18.0994 36.7383 18.4554C36.7383 18.8113 37.0268 19.0999 37.3828 19.0999H42.7109V20.564Z" fill="#363853"/>
</svg>
